<svg xmlns="http://www.w3.org/2000/svg" viewBox="0 0 148.87 228.71"><g id="Capa_2" data-name="Capa 2"><g id="Capa_1-2" data-name="Capa 1"><path d="M133.66,149.6c0-11.12-3.49-19.22-16.3-32L.1,0H5.56A43.68,43.68,0,0,1,36.32,12.71l92.59,92.11c15.65,15.77,20,22.55,20,38.32l-.41,47.09a39.64,39.64,0,0,1-11.74,27.82l-2.87,2.84Z"/><path d="M103.39,228.71l3.9-3.82a37.28,37.28,0,0,0,11.15-26.55l0-40.43c-.13-12.83-2-18.26-13.82-30.09L0,23v7.74A37.27,37.27,0,0,0,10.9,57.11L93.09,139.4c8.51,8.51,9.7,14.52,9.7,23.43Z"/><path d="M6.05,139.27,75.88,209.1a6.72,6.72,0,0,0,11.47-4.79L87.1,166.5c0-9.42-2-12.34-8-18.35L11.71,80.77A6.73,6.73,0,0,0,.23,85.52v39.67A19.88,19.88,0,0,0,6.05,139.27Z"/></g></g></svg>